<svg width="14" height="14" viewBox="0 0 14 14" fill="none" xmlns="http://www.w3.org/2000/svg">
<path d="M5.12791 8.75H1.87209C1.34755 8.75 0.904393 8.58594 0.542636 8.25781C0.180879 7.91146 0 7.49219 0 7C0 6.50781 0.189923 6.09766 0.569767 5.76953C0.9677 5.44141 1.40181 5.27734 1.87209 5.27734H5.12791V1.75C5.12791 1.29427 5.30879 0.893228 5.67054 0.546874C6.0323 0.182291 6.47545 0 7 0C7.52455 0 7.9677 0.173177 8.32946 0.519531C8.69121 0.847656 8.87209 1.25781 8.87209 1.75V5.27734H12.1279C12.5982 5.27734 13.0233 5.44141 13.4031 5.76953C13.801 6.09766 14 6.50781 14 7C14 7.49219 13.8191 7.91146 13.4574 8.25781C13.0956 8.58594 12.6525 8.75 12.1279 8.75H8.87209V12.2773C8.87209 12.7695 8.69121 13.1797 8.32946 13.5078C7.9677 13.8359 7.52455 14 7 14C6.47545 14 6.0323 13.8268 5.67054 13.4805C5.30879 13.1159 5.12791 12.7148 5.12791 12.2773V8.75Z" fill="white"/>
</svg>
