<svg width="32" height="33" viewBox="0 0 32 33" fill="none" xmlns="http://www.w3.org/2000/svg">
<path d="M20.065 6.20715H18.9827C15.9744 6.20715 13.527 8.6546 13.527 11.6629V13.9654H11.6778C11.4874 13.9654 11.333 14.1198 11.333 14.3102V17.0688C11.333 17.2592 11.4874 17.4136 11.6778 17.4136H13.5269V25.8623C13.5269 26.0527 13.6813 26.2072 13.8717 26.2072H16.6303C16.8207 26.2072 16.9751 26.0527 16.9751 25.8623V17.4136H19.719C19.9094 17.4136 20.0638 17.2592 20.0638 17.0688V14.3102C20.0638 14.1198 19.9094 13.9654 19.719 13.9654H16.9751V11.6629C16.9751 10.556 17.8757 9.65543 18.9825 9.65543H20.0649C20.2553 9.65543 20.4097 9.50102 20.4097 9.3106V6.55198C20.4098 6.36157 20.2554 6.20715 20.065 6.20715Z" fill="white"/>
</svg>
