<svg width="32" height="33" viewBox="0 0 32 33" fill="none" xmlns="http://www.w3.org/2000/svg">
<path d="M19.75 6.20715H12.25C8.79875 6.20715 6 9.0059 6 12.4572V19.9572C6 23.4084 8.79875 26.2072 12.25 26.2072H19.75C23.2013 26.2072 26 23.4084 26 19.9572V12.4572C26 9.0059 23.2013 6.20715 19.75 6.20715ZM24.125 19.9572C24.125 22.3697 22.1625 24.3322 19.75 24.3322H12.25C9.8375 24.3322 7.875 22.3697 7.875 19.9572V12.4572C7.875 10.0447 9.8375 8.08215 12.25 8.08215H19.75C22.1625 8.08215 24.125 10.0447 24.125 12.4572V19.9572Z" fill="white"/>
<path d="M16 11.2072C13.2387 11.2072 11 13.4459 11 16.2072C11 18.9684 13.2387 21.2072 16 21.2072C18.7612 21.2072 21 18.9684 21 16.2072C21 13.4459 18.7612 11.2072 16 11.2072ZM16 19.3322C14.2775 19.3322 12.875 17.9297 12.875 16.2072C12.875 14.4834 14.2775 13.0822 16 13.0822C17.7225 13.0822 19.125 14.4834 19.125 16.2072C19.125 17.9297 17.7225 19.3322 16 19.3322Z" fill="white"/>
<path d="M21.375 11.4984C21.743 11.4984 22.0413 11.2001 22.0413 10.8321C22.0413 10.4642 21.743 10.1659 21.375 10.1659C21.0071 10.1659 20.7088 10.4642 20.7088 10.8321C20.7088 11.2001 21.0071 11.4984 21.375 11.4984Z" fill="white"/>
</svg>
