<svg width="24" height="25" viewBox="0 0 24 25" fill="none" xmlns="http://www.w3.org/2000/svg">
<g clip-path="url(#clip0_2003_87)">
<path d="M18.675 15.3121C17.65 15.3121 16.6583 15.1454 15.7333 14.8454C15.4417 14.7454 15.1167 14.8204 14.8917 15.0454L13.5833 16.6871C11.225 15.5621 9.01667 13.4371 7.84167 10.9954L9.46667 9.61209C9.69167 9.37876 9.75833 9.05376 9.66667 8.76209C9.35833 7.83709 9.2 6.84542 9.2 5.82042C9.2 5.37042 8.825 4.99542 8.375 4.99542H5.49167C5.04167 4.99542 4.5 5.19542 4.5 5.82042C4.5 13.5621 10.9417 19.9954 18.675 19.9954C19.2667 19.9954 19.5 19.4704 19.5 19.0121V16.1371C19.5 15.6871 19.125 15.3121 18.675 15.3121Z" fill="white"/>
</g>
<defs>
<clipPath id="clip0_2003_87">
<rect width="24" height="24" fill="white" transform="translate(0 0.495422)"/>
</clipPath>
</defs>
</svg>
