<svg width="148" height="26" viewBox="0 0 148 26" fill="none" xmlns="http://www.w3.org/2000/svg">
<path d="M9.50399 6.60628C6.68556 6.60628 3.27724 6.98893 1.57307 7.49912V11.8996C3.53942 11.3894 5.50576 10.8154 7.86537 10.8154C11.4048 10.8154 13.7644 11.6445 13.7644 14.2592V14.9608C11.4048 14.1317 9.43844 14.0042 7.93091 14.0042C4.32595 14.0042 0 15.3434 0 19.6801C0 23.1239 2.75288 25.8025 7.53764 25.8025C11.0115 25.8025 13.3056 24.527 14.4198 23.7617L14.9442 25.4198H19.3357V14.1955C19.3357 8.45575 15.0753 6.60628 9.50399 6.60628ZM5.76794 19.8077C5.76794 18.4046 6.8822 17.5755 9.17626 17.5755C11.1426 17.5755 12.6501 17.8306 13.7644 18.3408V20.573C12.5846 21.1469 11.0115 21.8484 9.30735 21.8484C6.94774 21.8484 5.76794 21.0194 5.76794 19.8077ZM32.3136 6.60628C26.9389 6.60628 23.0062 8.20065 23.0062 12.2185C23.0062 14.5781 23.8583 16.6827 28.0531 17.5118L32.1825 18.3408C34.7387 18.851 35.0664 19.3612 35.0664 19.9352C35.0664 20.9556 34.2144 21.4658 30.806 21.4658C28.1842 21.4658 24.7104 20.6367 23.3995 20.1903V24.6545C24.907 25.1647 28.4464 25.8025 30.9371 25.8025C37.9504 25.8025 40.5722 23.2515 40.5722 19.7439C40.5722 17.0016 38.9991 15.2159 35.0009 14.3868L31.1993 13.5577C28.9052 13.0475 28.3809 13.0475 28.3809 12.2185C28.3809 11.0067 31.0027 10.8792 32.7068 10.8792C34.6732 10.8792 36.7706 11.1981 39.3924 12.0909V7.75422C37.7538 7.11648 35.3286 6.60628 32.3136 6.60628ZM56.1718 6.98893H50.2728V2.26959H45.5536L44.8981 6.98893H41.4898V11.3256H44.7015V19.425C44.7015 24.2719 47.9787 25.8025 51.9114 25.8025C53.6811 25.8025 54.7299 25.6749 56.1718 25.1647V20.8281C55.1887 21.1469 53.8122 21.3382 53.0912 21.3382C50.7972 21.3382 50.2728 20.2541 50.2728 18.4684V11.3256H56.1718V6.98893ZM78.3915 18.2133V15.6623C78.3915 9.85879 75.1143 6.60628 68.8875 6.60628C63.4473 6.60628 58.4004 9.60369 58.4004 16.0449C58.4004 22.8688 62.7919 25.8025 69.543 25.8025C72.2958 25.8025 75.1798 25.1647 77.3428 24.527V20.2541C75.3109 20.8918 72.3614 21.5296 69.674 21.5296C67.5766 21.5296 64.496 20.9556 64.1027 18.2133H78.3915ZM64.1027 14.8332C64.4305 12.0271 66.2002 10.8154 68.9531 10.8154C71.3127 10.8154 72.6236 12.346 72.6236 14.8332H64.1027ZM86.519 6.98893H82.062V25.4198H87.6333V13.6215C89.403 12.6011 91.6971 11.7083 94.7121 11.772V6.60628C91.4349 6.67005 89.0753 7.75422 87.1745 9.02972L86.519 6.98893ZM113.72 25.4198V0.61145H108.149V25.4198H113.72ZM120.996 6.98893C118.702 9.53992 116.67 12.2822 114.113 16.1725C117.784 19.8714 120.209 22.8051 121.979 25.4198H128.795C128.074 24.4632 123.683 18.851 120.275 15.8536C122.765 12.6649 124.928 10.1139 127.681 6.98893H120.996ZM147.934 10.4965V6.98893H130.172V11.3256H140.659L129.91 21.8484V25.4198H148V21.0831H137.12L147.934 10.4965Z" fill="#FEFEFE"/>
<path d="M100.546 25.7382C99.3666 25.7382 98.3835 25.3555 97.5314 24.5902C96.7448 23.8249 96.3516 22.8046 96.3516 21.6566C96.3516 20.4449 96.7448 19.4883 97.5314 18.7867C98.3179 18.0214 99.3666 17.6388 100.546 17.6388C101.792 17.6388 102.775 18.0214 103.562 18.7867C104.348 19.4883 104.741 20.4449 104.741 21.6566C104.741 22.8046 104.348 23.8249 103.562 24.5902C102.775 25.3555 101.726 25.7382 100.546 25.7382Z" fill="#F7D117"/>
</svg>
